<?xml version="1.0" encoding="UTF-8" standalone="no"?>
<svg
   className="svgName"
   width="1024px"
   height="1024px"
   viewBox="0 0 1024 1024"
   version="1.1"
   id="svg29509"
   sodipodi:docname="logout1.svg"
   inkscape:version="1.1.2 (b8e25be833, 2022-02-05)"
   xmlns:inkscape="http://www.inkscape.org/namespaces/inkscape"
   xmlns:sodipodi="http://sodipodi.sourceforge.net/DTD/sodipodi-0.dtd"
   xmlns="http://www.w3.org/2000/svg"
   xmlns:svg="http://www.w3.org/2000/svg">
  <defs
     id="defs29513" />
  <sodipodi:namedview
     id="namedview29511"
     pagecolor="#ffffff"
     bordercolor="#666666"
     borderopacity="1.0"
     inkscape:pageshadow="2"
     inkscape:pageopacity="0.0"
     inkscape:pagecheckerboard="0"
     showgrid="false"
     inkscape:zoom="0.81152344"
     inkscape:cx="512"
     inkscape:cy="512.61613"
     inkscape:window-width="1920"
     inkscape:window-height="1017"
     inkscape:window-x="-8"
     inkscape:window-y="-8"
     inkscape:window-maximized="1"
     inkscape:current-layer="svg29509" />
  <path
     d="M116.832 543.664H671.28c17.696 0 32-14.336 32-32s-14.304-32-32-32H118.832l115.76-115.76c12.496-12.496 12.496-32.752 0-45.248s-32.752-12.496-45.248 0l-189.008 194 189.008 194c6.256 6.256 14.432 9.376 22.624 9.376s16.368-3.12 22.624-9.376c12.496-12.496 12.496-32.752 0-45.248zM959.664 0H415.663c-35.36 0-64 28.656-64 64v288h64.416V103.024c0-21.376 17.344-38.72 38.72-38.72h464.72c21.391 0 38.72 17.344 38.72 38.72l1.007 818.288c0 21.376-17.328 38.72-38.72 38.72H454.816c-21.376 0-38.72-17.344-38.72-38.72V670.944l-64.416.08V960c0 35.344 28.64 64 64 64h543.984c35.36 0 64.016-28.656 64.016-64V64c-.015-35.344-28.671-64-64.015-64z"
     id="path29507"
     style="fill:#ffffff" />
</svg>
