<?xml version="1.0" encoding="UTF-8" standalone="no"?>
<svg
   width="24px"
   height="24px"
   viewBox="0 0 24 24"
   version="1.1"
   id="svg29873"
   sodipodi:docname="survey1.svg"
   inkscape:version="1.1.2 (b8e25be833, 2022-02-05)"
   xmlns:inkscape="http://www.inkscape.org/namespaces/inkscape"
   xmlns:sodipodi="http://sodipodi.sourceforge.net/DTD/sodipodi-0.dtd"
   xmlns="http://www.w3.org/2000/svg"
   xmlns:svg="http://www.w3.org/2000/svg">
  <defs
     id="defs29877" />
  <sodipodi:namedview
     id="namedview29875"
     pagecolor="#ffffff"
     bordercolor="#666666"
     borderopacity="1.0"
     inkscape:pageshadow="2"
     inkscape:pageopacity="0.0"
     inkscape:pagecheckerboard="0"
     showgrid="false"
     inkscape:zoom="34.625"
     inkscape:cx="12"
     inkscape:cy="11.98556"
     inkscape:window-width="1920"
     inkscape:window-height="1017"
     inkscape:window-x="-8"
     inkscape:window-y="-8"
     inkscape:window-maximized="1"
     inkscape:current-layer="svg29873" />
  <g
     className="svgName"
     id="g29871">
    <path
       fill="none"
       d="M0 0L24 0 24 24 0 24z"
       id="path29867" />
    <path
       d="M17 2v2h3.007c.548 0 .993.445.993.993v16.014c0 .548-.445.993-.993.993H3.993C3.445 22 3 21.555 3 21.007V4.993C3 4.445 3.445 4 3.993 4H7V2h10zM7 6H5v14h14V6h-2v2H7V6zm2 10v2H7v-2h2zm0-3v2H7v-2h2zm0-3v2H7v-2h2zm6-6H9v2h6V4z"
       id="path29869"
       style="fill:#ffffff" />
  </g>
</svg>
